# xmcd
#
# Track frame offsets: 
#        150
#        25019
#        44973
#        62406
#        75227
#        93886
#        113342
#        129214
#
# Disc length: 1957 seconds
#
# Revision: 0
# Processed by: cddbd v1.5.2PL0 Copyright (c) Steve Scherf et al.
# Submitted via: ExactAudioCopyFreeDBPlugin 1.0
#
DISCID=5007a308
DTITLE=Rupankar - Bhokatta
DYEAR=2002
DGENRE=Bengali Modern
TTITLE0=Rubi Rai
TTITLE1=Tumi Ki Aakash Bhebe
TTITLE2=Bhokatta
TTITLE3=Ki Je Aami To Jaani Naa
TTITLE4=Oi Se Disheharay
TTITLE5=Hawthat Hawthat
TTITLE6=Chotto E Haate
TTITLE7=Megh Neme Elo
EXTD=
EXTT0=
EXTT1=
EXTT2=
EXTT3=
EXTT4=
EXTT5=
EXTT6=
EXTT7=
PLAYORDER=
